<?xml version="1.0" encoding="UTF-8"?>
<svg fill="none" version="1.1" viewBox="0 0 136.37 173.11" xmlns="http://www.w3.org/2000/svg">
<mask id="e" x="21" y="24" width="138" height="167" maskUnits="userSpaceOnUse">
<path d="m106.36 123.14v12.538h2.727c27.112 0 49.091 21.979 49.091 49.091v6.136h-136.36v-6.136c0-27.112 21.979-49.091 49.091-49.091h2.7273v-12.538c-11.753-5.583-20.201-16.994-21.61-30.498-3.9714-0.5614-7.0262-3.9744-7.0262-8.1008v-9.5455c0-4.0541 2.9486-7.4195 6.8182-8.0687v-4.204c0-21.087 17.095-38.182 38.182-38.182s38.182 17.095 38.182 38.182v4.204c3.869 0.6492 6.818 4.0146 6.818 8.0687v9.5455c0 4.1264-3.055 7.5394-7.026 8.1008-1.41 13.504-9.858 24.915-21.61 30.498z" fill="#fff"/>
</mask>
<g transform="translate(-21.818 -17.795)" mask="url(#e)">
<path d="m106.36 123.14v12.538h2.727c27.112 0 49.091 21.979 49.091 49.091v6.136h-136.36v-6.136c0-27.112 21.979-49.091 49.091-49.091h2.7273v-12.538c-11.753-5.583-20.201-16.994-21.61-30.498-3.9714-0.5614-7.0262-3.9744-7.0262-8.1008v-9.5455c0-4.0541 2.9486-7.4195 6.8182-8.0687v-4.204c0-21.087 17.095-38.182 38.182-38.182s38.182 17.095 38.182 38.182v4.204c3.869 0.6492 6.818 4.0146 6.818 8.0687v9.5455c0 4.1264-3.055 7.5394-7.026 8.1008-1.41 13.504-9.858 24.915-21.61 30.498z" fill="#d0c6ac"/>
<path d="m201.82 24.546h-180v190.91h180z" fill="#edb98a"/>
<path d="m128.18 78.409v15.682c0 21.087-17.095 38.182-38.182 38.182s-38.182-17.095-38.182-38.182v-15.682 10.227c0 21.088 17.095 38.182 38.182 38.182s38.182-17.094 38.182-38.182z" clip-rule="evenodd" fill="#000" fill-opacity=".1" fill-rule="evenodd"/>
</g>
<mask id="f" x="21" y="135" width="138" height="56" maskUnits="userSpaceOnUse">
<path d="m113.16 135.88c25.211 2.066 45.027 23.181 45.027 48.925v6.101h-136.36v-6.101c0-25.977 20.176-47.241 45.713-48.977-0.0206 0.255-0.031 0.512-0.031 0.77 0 8.088 10.226 14.645 22.841 14.645s22.841-6.557 22.841-14.645c0-0.241-9e-3 -0.48-0.027-0.718z" clip-rule="evenodd" fill="#fff" fill-rule="evenodd"/>
</mask>
<g transform="translate(-21.818 -17.795)" mask="url(#f)">
<path d="m113.16 135.88c25.211 2.066 45.027 23.181 45.027 48.925v6.101h-136.36v-6.101c0-25.977 20.176-47.241 45.713-48.977-0.0206 0.255-0.031 0.512-0.031 0.77 0 8.088 10.226 14.645 22.841 14.645s22.841-6.557 22.841-14.645c0-0.241-9e-3 -0.48-0.027-0.718z" clip-rule="evenodd" fill="#e6e6e6" fill-rule="evenodd"/>
<path d="m180 115.91h-180v75h180z" fill="#262e33"/>
<g opacity=".6">
<g opacity=".6">
<path d="m90.341 155.97c14.925 0 27.024-8.216 27.024-18.351 0-10.134-12.099-18.35-27.024-18.35s-27.024 8.216-27.024 18.35c0 10.135 12.099 18.351 27.024 18.351z" fill="#000" fill-opacity=".16" opacity=".6"/>
</g>
</g>
</g>
<path d="m46.899 117.96c-26.095 1.147-46.899 22.665-46.899 49.043v6.101h47.292c-2.3188-8.236-3.6557-17.926-3.6557-28.295 0-9.769 1.1864-18.934 3.2624-26.849zm42.855 55.144h46.61v-6.101c0-26.144-20.438-47.515-46.208-49.008 2.07 7.907 3.253 17.06 3.253 26.814 0 10.369-1.337 20.059-3.655 28.295z" clip-rule="evenodd" fill="#3a4c5a" fill-rule="evenodd"/>
<path d="m101.59 156.74 6.515-4.886c0.984-0.738 2.34-0.726 3.311 0.029l4.492 3.494z" clip-rule="evenodd" fill="#e6e6e6" fill-rule="evenodd"/>
<path d="m47.046 117.2c-2.7272 13.182-1.5909 31.818 3.4091 55.909h-10.909l-9.5454-24.545 4.0909-6.137-4.0909-4.091 12.954-20.454c1.3825-0.43 2.7462-0.658 4.0909-0.682z" clip-rule="evenodd" fill="#2f4351" fill-rule="evenodd"/>
<path d="m89.322 117.2c2.728 13.182 1.591 31.818-3.409 55.909h10.909l9.546-24.545-4.091-6.137 4.091-4.091-12.955-20.454c-1.382-0.43-2.746-0.658-4.091-0.682z" clip-rule="evenodd" fill="#2f4351" fill-rule="evenodd"/>
<path d="m58.636 83.795c0 5.272 4.2737 9.545 9.5455 9.545s9.5454-4.273 9.5454-9.545" clip-rule="evenodd" fill="#000" fill-opacity=".7" fill-rule="evenodd"/>
<path d="m60 70.841c0 3.0124 3.6631 5.4545 8.1818 5.4545s8.1818-2.4421 8.1818-5.4545" clip-rule="evenodd" fill="#000" fill-opacity=".16" fill-rule="evenodd"/>
<path d="m50.455 62.66c2.2593 0 4.0909-1.8316 4.0909-4.091 0-2.2593-1.8316-4.0909-4.0909-4.0909s-4.0909 1.8316-4.0909 4.0909c0 2.2594 1.8316 4.091 4.0909 4.091z" fill="#000" fill-opacity=".6"/>
<path d="m85.912 62.66c2.26 0 4.091-1.8316 4.091-4.091 0-2.2593-1.831-4.0909-4.091-4.0909-2.259 0-4.091 1.8316-4.091 4.0909 0 2.2594 1.832 4.091 4.091 4.091z" fill="#000" fill-opacity=".6"/>
<path d="m40.657 49.813c2.6692-3.7559 9.987-5.8621 16.29-4.3141 0.7314 0.1796 1.4699-0.2677 1.6495-0.9991s-0.2677-1.4699-0.9991-1.6495c-7.3204-1.7977-15.794 0.6412-19.164 5.3828-0.4363 0.6139-0.2923 1.4652 0.3216 1.9015s1.4652 0.2923 1.9015-0.3216z" fill="#000" fill-opacity=".6"/>
<path d="m95.702 49.813c-2.669-3.7559-9.987-5.8621-16.291-4.3141-0.731 0.1796-1.4694-0.2677-1.649-0.9991s0.2677-1.4699 0.999-1.6495c7.32-1.7977 15.794 0.6412 19.164 5.3828 0.436 0.6139 0.292 1.4652-0.322 1.9015-0.613 0.4363-1.465 0.2923-1.901-0.3216z" fill="#000" fill-opacity=".6"/>
<mask id="g" x="0" y="0" width="180" height="191" maskUnits="userSpaceOnUse">
<path d="m180 0h-180v190.91h180z" fill="#fff"/>
</mask>
<g transform="translate(-21.818 -17.795)" mask="url(#g)">
<mask id="h" x="49" y="17" width="82" height="51" maskUnits="userSpaceOnUse">
<path d="m113.39 23.868c-13.764-7.977-27.395-6.671-37.685-4.0746-10.29 2.5963-16.377 9.969-21.6 20.876-2.5643 5.3556-4.0845 11.689-4.3183 17.614-0.0918 2.3263 0.2218 4.7276 0.8486 6.9675 0.2299 0.8222 1.4697 3.6727 1.81 1.3695 0.1133-0.7668-0.3014-1.8246-0.3415-2.6395-0.0526-1.0693 0.0039-2.1524 0.0768-3.22 0.1363-1.9961 0.4921-3.9542 1.1254-5.857 0.9049-2.7191 2.0568-5.6672 3.82-7.9613 4.3643-5.6779 11.919-6.0015 17.917-9.1258-0.5205 0.958-2.5273 2.5088-1.832 3.5886 0.4802 0.7458 2.2978 0.5197 3.1656 0.4957 2.2833-0.0624 4.5769-0.4597 6.8322-0.782 3.5544-0.5081 6.8849-1.5377 10.23-2.7879 2.7385-1.0239 5.866-1.9721 7.9242-4.1438 3.321 3.4416 7.596 6.6778 11.865 8.8653 3.83 1.9632 10.008 2.9442 12.349 6.9257 2.772 4.7142 1.497 10.505 2.343 15.614 0.322 1.9429 1.054 1.8993 1.454 0.1616 0.68-2.952 1.001-6.0189 0.784-9.0536-0.489-6.8508-3.003-24.855-16.768-32.832z" clip-rule="evenodd" fill="#fff" fill-rule="evenodd"/>
</mask>
<g mask="url(#h)">
<path d="m113.39 23.868c-13.764-7.977-27.395-6.671-37.685-4.0746-10.29 2.5963-16.377 9.969-21.6 20.876-2.5643 5.3556-4.0845 11.689-4.3183 17.614-0.0918 2.3263 0.2218 4.7276 0.8486 6.9675 0.2299 0.8222 1.4697 3.6727 1.81 1.3695 0.1133-0.7668-0.3014-1.8246-0.3415-2.6395-0.0526-1.0693 0.0039-2.1524 0.0768-3.22 0.1363-1.9961 0.4921-3.9542 1.1254-5.857 0.9049-2.7191 2.0568-5.6672 3.82-7.9613 4.3643-5.6779 11.919-6.0015 17.917-9.1258-0.5205 0.958-2.5273 2.5088-1.832 3.5886 0.4802 0.7458 2.2978 0.5197 3.1656 0.4957 2.2833-0.0624 4.5769-0.4597 6.8322-0.782 3.5544-0.5081 6.8849-1.5377 10.23-2.7879 2.7385-1.0239 5.866-1.9721 7.9242-4.1438 3.321 3.4416 7.596 6.6778 11.865 8.8653 3.83 1.9632 10.008 2.9442 12.349 6.9257 2.772 4.7142 1.497 10.505 2.343 15.614 0.322 1.9429 1.054 1.8993 1.454 0.1616 0.68-2.952 1.001-6.0189 0.784-9.0536-0.489-6.8508-3.003-24.855-16.768-32.832z" clip-rule="evenodd" fill="#28354b" fill-rule="evenodd"/>
<path d="m179.32 0h-180v190.91h180z" fill="#724133"/>
</g>
</g>
</svg>