<svg width="68" height="39" viewBox="0 0 68 39" fill="none" xmlns="http://www.w3.org/2000/svg">
<path d="M32.9738 29.1223C31.6356 31.2256 30.3517 33.2832 27.4747 35.2822C25.9358 36.3609 22.3937 38.4686 17.3589 38.4686C7.75318 38.4686 0 31.485 0 19.2071C0 8.47656 7.29326 0 17.5637 0C21.7246 0 25.4215 1.43842 28.144 3.59625C30.6615 5.59918 31.8406 7.60266 32.8694 9.40078L25.6807 12.9928C25.1664 11.8135 24.5473 10.5798 22.9582 9.24588C21.2104 7.8575 19.4664 7.44775 17.9735 7.44775C12.119 7.44775 9.03697 12.8926 9.03697 18.952C9.03697 26.9142 13.0975 30.866 17.9735 30.866C22.6989 30.866 24.6016 27.579 25.8312 25.4758L32.9738 29.1225V29.1223ZM58.1566 1.12916H67.8125L55.2293 37.3897H45.9875L33.5593 1.12916H43.215L50.7131 26.9143L58.1566 1.12916Z" fill="white"/>
</svg>
